<?xml version="1.0" encoding="utf-8"?>
<!-- Generator: Adobe Illustrator 24.3.0, SVG Export Plug-In . SVG Version: 6.00 Build 0)  -->
<svg version="1.1" baseProfile="tiny" xmlns="http://www.w3.org/2000/svg" xmlns:xlink="http://www.w3.org/1999/xlink" x="0px"
	 y="0px" viewBox="0 0 190.6 190.6" overflow="visible" xml:space="preserve">
<g id="_x33_22">
	<g>
		<g>
			<path fill-rule="evenodd" fill="#E0EDFF" d="M172.9,108.9c1.2,11.6-4.1,21.7-14.6,26.6c-26.7,12.6-15.1,17.6-29.7,33.1
				c-22.7,24.1-35.4-14.4-61.8-2.8c-16.1,7.2-47.7-3.4-39-27.5c9.9-27.5-5-31.2-4.5-54.2c0.6-26.7,19-28.4,30.4-34.7
				c12.1-6.7,12.8-29.2,32.6-31.5c15.7-1.8,17.7,17.1,51.4,10.5c18.8-3.7,37.1,15.8,32,33.9C161.7,90.4,170.9,90.5,172.9,108.9
				L172.9,108.9z"/>
			<path fill="#C9C1F5" d="M137.2,16.2c-1.7,0-3.3,0.7-4.4,1.8c-1.2,1.1-1.9,2.7-1.9,4.4c0,1-0.8,1.9-1.9,1.9c-1,0-1.9-0.8-1.9-1.9
				c0-1.7-0.7-3.3-1.9-4.5c-1.1-1.2-2.7-1.9-4.5-1.9c-1,0-1.9-0.8-1.9-1.9c0-1,0.9-1.9,1.9-1.9c1.8,0,3.3-0.7,4.5-1.8
				c1.2-1.1,1.9-2.7,1.9-4.4c0-1,0.9-1.9,1.9-1.9c1,0,1.9,0.8,1.9,1.9c0,1.7,0.7,3.3,1.9,4.5c1.1,1.1,2.7,1.9,4.4,1.9
				c0,0,0.1,0,0.1,0c1,0,1.9,0.9,1.9,1.9C139.1,15.4,138.3,16.3,137.2,16.2C137.2,16.2,137.2,16.2,137.2,16.2L137.2,16.2z"/>
			<path fill="#C9C1F5" d="M159,157.5c-1.2,0-2.3,0.5-3.1,1.3c-0.8,0.8-1.3,1.9-1.3,3.1c0,0.7-0.6,1.3-1.3,1.3
				c-0.7,0-1.3-0.6-1.3-1.3c0-1.2-0.5-2.3-1.3-3.1c-0.8-0.8-1.9-1.3-3.1-1.3c-0.7,0-1.3-0.6-1.3-1.3c0-0.7,0.6-1.3,1.3-1.3
				c1.2,0,2.3-0.5,3.2-1.3c0.8-0.8,1.3-1.9,1.3-3.1c0-0.7,0.6-1.3,1.3-1.3c0.7,0,1.3,0.6,1.3,1.3c0,1.2,0.5,2.3,1.3,3.1
				c0.8,0.8,1.9,1.3,3.1,1.3c0,0,0,0,0.1,0c0.7,0,1.3,0.6,1.3,1.3C160.4,156.9,159.8,157.5,159,157.5
				C159.1,157.5,159.1,157.5,159,157.5L159,157.5z"/>
			<path fill="#96D7FF" d="M51.2,37.8c-1.2,0-2.3,0.5-3.1,1.3c-0.8,0.8-1.3,1.9-1.3,3.1c0,0.7-0.6,1.3-1.3,1.3
				c-0.7,0-1.3-0.6-1.3-1.3c0-1.2-0.5-2.3-1.3-3.1c-0.8-0.8-1.9-1.3-3.1-1.3c-0.7,0-1.3-0.6-1.3-1.3c0-0.7,0.6-1.3,1.3-1.3
				c1.2,0,2.3-0.5,3.1-1.3c0.8-0.8,1.3-1.9,1.3-3.1c0-0.7,0.6-1.3,1.3-1.3c0.7,0,1.3,0.6,1.3,1.3c0,1.2,0.5,2.3,1.3,3.1
				c0.8,0.8,1.9,1.3,3.1,1.3c0,0,0,0,0.1,0c0.7,0,1.3,0.6,1.3,1.3C52.5,37.2,51.9,37.8,51.2,37.8C51.2,37.8,51.2,37.8,51.2,37.8
				L51.2,37.8z"/>
			<path fill="#C9C1F5" d="M21.8,123.5c-1.4,0-2.7,0.6-3.7,1.5c-1,1-1.6,2.3-1.6,3.7c0,0.9-0.7,1.6-1.6,1.6c-0.9,0-1.6-0.7-1.6-1.6
				c0-1.5-0.6-2.8-1.6-3.7c-1-1-2.3-1.6-3.8-1.6c-0.9,0-1.6-0.7-1.6-1.6c0-0.9,0.7-1.6,1.6-1.6c1.5,0,2.8-0.6,3.8-1.5
				c1-1,1.6-2.3,1.6-3.7c0-0.9,0.7-1.6,1.6-1.6c0.9,0,1.6,0.7,1.6,1.6c0,1.5,0.6,2.8,1.6,3.7c0.9,0.9,2.2,1.5,3.7,1.6c0,0,0,0,0.1,0
				c0.9,0,1.6,0.7,1.6,1.6C23.4,122.8,22.7,123.5,21.8,123.5C21.8,123.5,21.8,123.5,21.8,123.5L21.8,123.5z"/>
			<path fill="#96D7FF" d="M92.9,180.2c-1.5,0-2.9,0.6-4,1.6c-1,1-1.7,2.4-1.7,4c0,0.9-0.8,1.7-1.7,1.7c-0.9,0-1.7-0.7-1.7-1.7
				c0-1.6-0.6-3-1.7-4c-1-1-2.5-1.7-4-1.7c-0.9,0-1.7-0.7-1.7-1.7c0-0.9,0.8-1.7,1.7-1.7c1.6,0,3-0.6,4-1.6c1-1,1.7-2.4,1.7-4
				c0-0.9,0.8-1.7,1.7-1.7c0.9,0,1.7,0.8,1.7,1.7c0,1.6,0.6,3,1.6,4c1,1,2.4,1.7,3.9,1.7c0,0,0.1,0,0.1,0c0.9,0,1.7,0.7,1.7,1.7
				C94.7,179.4,93.9,180.2,92.9,180.2C93,180.2,93,180.2,92.9,180.2L92.9,180.2z"/>
			<path fill="#96D7FF" d="M184.3,75.3c-1,0-2,0.4-2.7,1.1c-0.7,0.7-1.1,1.6-1.1,2.7c0,0.6-0.5,1.1-1.2,1.1c-0.6,0-1.1-0.5-1.1-1.1
				c0-1-0.4-2-1.1-2.7c-0.7-0.7-1.7-1.1-2.7-1.1c-0.6,0-1.2-0.5-1.1-1.1c0-0.6,0.5-1.1,1.2-1.1c1.1,0,2-0.4,2.7-1.1
				c0.7-0.7,1.1-1.7,1.1-2.7c0-0.6,0.5-1.1,1.1-1.1c0.6,0,1.2,0.5,1.1,1.1c0,1,0.4,2,1.1,2.7c0.7,0.7,1.6,1.1,2.7,1.1c0,0,0,0,0.1,0
				c0.6,0,1.1,0.5,1.1,1.1C185.5,74.8,185,75.3,184.3,75.3C184.3,75.3,184.3,75.3,184.3,75.3L184.3,75.3z"/>
		</g>
		<g>
			<g>
				<g>
					<path fill="#6D6DAA" d="M94.8,149.3c-16.6,0-30.1-13.5-30.1-30.1c0-5.7,1.6-11.3,4.7-16.1c2.7-4.3,6.5-7.8,10.9-10.2v-36
						c0-8,6.5-14.5,14.5-14.5s14.5,6.5,14.5,14.5v36c4.4,2.4,8.2,6,10.9,10.2c3.1,4.8,4.7,10.4,4.7,16.1
						C124.9,135.8,111.4,149.3,94.8,149.3z M94.8,46.8c-5.5,0-10,4.5-10,10v37.4c0,0.8-0.5,1.6-1.2,2c-8.8,4.3-14.3,13.2-14.3,23
						c0,14.1,11.5,25.6,25.6,25.6c14.1,0,25.6-11.5,25.6-25.6c0-9.8-5.5-18.7-14.3-23c-0.8-0.4-1.2-1.1-1.2-2V56.9
						C104.9,51.3,100.4,46.8,94.8,46.8z"/>
				</g>
				<g>
					<path fill="#6D6DAA" d="M120.5,55.7h-13.4c-1.2,0-2.2-1-2.2-2.2c0-1.2,1-2.2,2.2-2.2h13.4c1.2,0,2.2,1,2.2,2.2
						C122.7,54.7,121.7,55.7,120.5,55.7z"/>
				</g>
				<g>
					<path fill="#6D6DAA" d="M118.2,66.9h-11.1c-1.2,0-2.2-1-2.2-2.2c0-1.2,1-2.2,2.2-2.2h11.1c1.2,0,2.2,1,2.2,2.2
						C120.5,65.9,119.5,66.9,118.2,66.9z"/>
				</g>
				<g>
					<path fill="#6D6DAA" d="M127.1,78h-20c-1.2,0-2.2-1-2.2-2.2c0-1.2,1-2.2,2.2-2.2h20c1.2,0,2.2,1,2.2,2.2
						C129.4,77,128.4,78,127.1,78z"/>
				</g>
				<g>
					<path fill="#6D6DAA" d="M120.5,89.1h-13.4c-1.2,0-2.2-1-2.2-2.2c0-1.2,1-2.2,2.2-2.2h13.4c1.2,0,2.2,1,2.2,2.2
						C122.7,88.2,121.7,89.1,120.5,89.1z"/>
				</g>
				<g>
					<path fill="#6D6DAA" d="M94.8,135.9c-9.2,0-16.7-7.5-16.7-16.7c0-9.2,7.5-16.7,16.7-16.7c9.2,0,16.7,7.5,16.7,16.7
						C111.5,128.4,104.1,135.9,94.8,135.9z M94.8,107c-6.8,0-12.2,5.5-12.2,12.2s5.5,12.2,12.2,12.2c6.8,0,12.2-5.5,12.2-12.2
						S101.6,107,94.8,107z"/>
				</g>
				<g>
					<path fill="#6D6DAA" d="M138.3,149.3H53.7c-1.2,0-2.2-1-2.2-2.2V44.6c0-1.2,1-2.2,2.2-2.2h84.6c1.2,0,2.2,1,2.2,2.2V147
						C140.5,148.3,139.5,149.3,138.3,149.3z M55.9,144.8H136v-98H55.9V144.8z"/>
				</g>
				<g>
					<path fill="#6D6DAA" d="M64.8,82.5c-1.2,0-2.2-1-2.2-2.2v-20c0-1.2,1-2.2,2.2-2.2h11.1c1.2,0,2.2,1,2.2,2.2
						c0,1.2-1,2.2-2.2,2.2H67v17.8C67,81.5,66,82.5,64.8,82.5z"/>
				</g>
				<g>
					<path fill="#6D6DAA" d="M73.7,71.3h-8.9c-1.2,0-2.2-1-2.2-2.2c0-1.2,1-2.2,2.2-2.2h8.9c1.2,0,2.2,1,2.2,2.2
						C75.9,70.3,74.9,71.3,73.7,71.3z"/>
				</g>
			</g>
		</g>
	</g>
</g>
<g id="Layer_1">
</g>
</svg>
